<svg viewBox="0 -34 512.0001 512" xmlns="http://www.w3.org/2000/svg"><path d="m125.230469 287.234375c-4.394531 0-7.960938-3.558594-7.960938-7.953125v-44.417969c0-4.390625 3.566407-7.953125 7.960938-7.953125s7.960937 3.5625 7.960937 7.953125v44.417969c0 4.394531-3.566406 7.953125-7.960937 7.953125zm0 0" fill="#d7deed"/><path d="m47.050781 97.917969h-14.152343c-4.394532 0-7.960938-3.558594-7.960938-7.953125 0-4.394532 3.566406-7.953125 7.960938-7.953125h14.152343c4.398438 0 7.960938 3.558593 7.960938 7.953125 0 4.394531-3.5625 7.953125-7.960938 7.953125zm0 0" fill="#464655"/><g fill="#afb9d2"><path d="m132.527344 234.867188h-40.0625c-3.59375 0-6.5-2.910157-6.5-6.5v-23.382813h53.0625v23.382813c0 3.589843-2.910156 6.5-6.5 6.5zm0 0"/><path d="m133.886719 444.316406h-91.824219c-4.105469 0-7.433594-3.328125-7.433594-7.4375v-16.953125h106.691406v16.953125c0 4.105469-3.328124 7.4375-7.433593 7.4375zm0 0"/><path d="m466.140625 444.316406h-91.824219c-4.105468 0-7.433594-3.328125-7.433594-7.4375v-16.953125h106.691407v16.953125c0 4.105469-3.328125 7.4375-7.433594 7.4375zm0 0"/></g><path d="m423.09375 37.851562c-4.394531 0-7.960938-3.558593-7.960938-7.953124v-21.945313c0-4.390625 3.566407-7.953125 7.960938-7.953125s7.960938 3.5625 7.960938 7.953125v21.945313c0 4.394531-3.566407 7.953124-7.960938 7.953124zm0 0" fill="#464655"/><path d="m512 76.363281v337.722657c0 3.339843-3.183594 6.046874-6.527344 6.046874h-499.414062c-3.339844 0-6.058594-2.707031-6.058594-6.046874v-73.808594c0-19.738282 16.078125-35.738282 35.902344-35.738282h305.828125v-132.882812c0-11.535156-9.363281-20.890625-20.894531-20.890625h-88.714844c-15.695313 0-30.394532 7.6875-39.339844 20.574219l-10.464844 15.070312c-8.945312 12.882813-23.644531 20.5625-39.339844 20.5625h-66.4375c-16.480468 0-29.84375-13.351562-29.84375-29.820312v-117.460938c0-16.46875 13.363282-29.820312 29.84375-29.820312h388.625c25.640626 0 46.890626 20.828125 46.835938 46.492187zm0 0" fill="#e4eaf7"/><path d="m76.539062 206.972656h66.4375c15.695313 0 30.394532-7.679687 39.339844-20.5625l10.464844-15.070312c8.945312-12.886719 23.644531-20.574219 39.339844-20.574219h88.710937c11.535157 0 20.898438 9.355469 20.898438 20.890625v-24.707031c0-11.539063-9.363281-20.890625-20.898438-20.890625h-88.710937c-15.695313 0-30.394532 7.6875-39.339844 20.570312l-10.464844 15.070313c-8.949218 12.886719-23.644531 20.5625-39.339844 20.5625h-66.4375c-16.480468 0-29.84375-13.351563-29.84375-29.820313v24.710938c0 16.46875 13.363282 29.820312 29.84375 29.820312zm0 0" fill="#d7deed"/><path d="m505.472656 395.421875h-499.414062c-3.339844 0-6.058594-2.703125-6.058594-6.046875v24.710938c0 3.339843 2.71875 6.042968 6.058594 6.042968h499.414062c3.34375 0 6.527344-2.703125 6.527344-6.042968v-24.710938c0 3.339844-3.183594 6.046875-6.527344 6.046875zm0 0" fill="#d7deed"/><path d="m132.617188 29.902344v176.339844c0 .191406-.011719.382812-.03125.570312h-15.855469c-.023438-.1875-.035157-.378906-.035157-.570312v-176.339844zm0 0" fill="#c7cfe2"/><path d="m480.757812 75.503906v32.460938c0 8.039062-6.527343 14.5625-14.574218 14.5625h-238.296875c-8.042969 0-14.570313-6.523438-14.570313-14.5625v-32.460938c0-8.050781 6.527344-14.558594 14.570313-14.558594h238.296875c8.046875-.003906 14.574218 6.507813 14.574218 14.558594zm0 0" fill="#40cb7f"/><path d="m160.339844 172.53125c0-4.394531-3.5625-7.953125-7.960938-7.953125-4.394531 0-7.957031 3.558594-7.957031 7.953125s3.5625 7.953125 7.957031 7.953125c4.398438 0 7.960938-3.558594 7.960938-7.953125zm0 0" fill="#40cb7f"/><path d="m248.867188 91.734375c0-4.394531-3.5625-7.957031-7.957032-7.957031-4.398437 0-7.960937 3.5625-7.960937 7.957031 0 4.390625 3.5625 7.953125 7.960937 7.953125 4.394532 0 7.957032-3.5625 7.957032-7.953125zm0 0" fill="#464655"/><path d="m417.535156 68.492188v52.917968c0 .371094 0 .742188-.011718 1.113282h-119.296876c-.007812-.371094-.007812-.742188-.007812-1.113282v-60.46875h118.976562c.222657 2.378906.339844 4.910156.339844 7.550782zm0 0" fill="#fff"/><path d="m480.757812 75.503906v32.460938c0 8.039062-6.527343 14.5625-14.574218 14.5625h-48.648438v-61.585938h48.648438c8.046875 0 14.574218 6.511719 14.574218 14.5625zm0 0" fill="#464655"/><path d="m417.535156 83.773438h63.222656v15.910156h-63.222656zm0 0" fill="#707487"/><path d="m440.957031 60.941406h15.921875v61.578125h-15.921875zm0 0" fill="#707487"/><path d="m226.347656 29.902344h-70.394531c4.523437-15.132813 18.574219-26.171875 35.191406-26.171875 16.632813 0 30.671875 11.039062 35.203125 26.171875zm0 0" fill="#c7cfe2"/><path d="m341.730469 284.503906h170.269531v20.03125h-170.269531zm0 0" fill="#d7deed"/><path d="m433.265625 282.375c4.242187 7.261719.390625 16.574219-7.757813 18.703125l-8.152343 2.132813c-1.136719.296874-2.207031.742187-3.195313 1.328124h-72.429687v-88.847656c2.714843-7.265625 11.429687-10.511718 18.304687-6.480468l7.28125 4.253906c3.960938 2.320312 8.871094 2.320312 12.832032 0l7.28125-4.253906c7.269531-4.253907 16.585937-.394532 18.707031 7.742187l2.144531 8.152344c1.15625 4.433593 4.628906 7.902343 9.074219 9.070312l8.152343 2.128907c8.148438 2.132812 12.003907 11.445312 7.757813 18.707031l-4.257813 7.265625c-2.324218 3.964844-2.324218 8.867187 0 12.832031zm0 0" fill="#01c8f0"/><path d="m512 146.960938v92.082031l-5.210938-3.945313c-3.078124-1.792968-6.878906-1.792968-9.945312 0l-5.632812 3.296875c-5.625 3.285157-12.832032.296875-14.488282-6.003906l-1.65625-6.308594c-.902344-3.4375-3.585937-6.117187-7.023437-7.019531l-6.316407-1.65625c-6.304687-1.640625-9.285156-8.851562-5.996093-14.472656l3.289062-5.632813c1.792969-3.066406 1.792969-6.859375 0-9.925781l-3.289062-5.632812c-3.289063-5.617188-.308594-12.832032 5.996093-14.472657l6.316407-1.65625c3.4375-.898437 6.121093-3.582031 7.023437-7.019531l1.65625-6.308594c1.65625-6.300781 8.863282-9.292968 14.488282-6.003906l5.632812 3.296875c3.066406 1.792969 6.867188 1.792969 9.945312 0zm0 0" fill="#ff87ba"/><path d="m401.054688 284.484375c0 7.175781-1.644532 13.988281-4.574219 20.050781h-54.75v-64.347656c4.148437-1.230469 8.554687-1.886719 13.105469-1.886719 25.523437 0 46.21875 20.675781 46.21875 46.183594zm0 0" fill="#01a3dc"/><path d="m497.371094 192.335938c0-4.390626-3.5625-7.953126-7.957032-7.953126-4.398437 0-7.960937 3.5625-7.960937 7.953126 0 4.394531 3.5625 7.957031 7.960937 7.957031 4.394532 0 7.957032-3.5625 7.957032-7.957031zm0 0" fill="#fff"/><path d="m376.222656 277.125c0-4.394531-3.566406-7.957031-7.960937-7.957031-4.398438 0-7.960938 3.5625-7.960938 7.957031 0 4.390625 3.5625 7.953125 7.960938 7.953125 4.394531 0 7.960937-3.5625 7.960937-7.953125zm0 0" fill="#fff"/><path d="m210.660156 304.535156h15.921875v115.59375h-15.921875zm0 0" fill="#c7cfe2"/></svg>